<svg xmlns="http://www.w3.org/2000/svg" viewBox="0 0 187.61 206"><defs><style>.cls-1{fill:#fff;}</style></defs><g id="Layer_2" data-name="Layer 2"><g id="Layer_1-2" data-name="Layer 1"><g id="Layer_2-2" data-name="Layer 2"><g id="Layer_1-2-2" data-name="Layer 1-2"><path class="cls-1" d="M148.8,130.2h0a8.75,8.75,0,0,1-8.8-8.8V84.6a8.75,8.75,0,0,1,8.8-8.8h0a8.75,8.75,0,0,1,8.8,8.8h0v36.8A8.75,8.75,0,0,1,148.8,130.2Z"/><path class="cls-1" d="M45.8,146h0a8.75,8.75,0,0,0,8.8-8.8h0V68.8A8.81,8.81,0,0,0,45.8,60h0A8.81,8.81,0,0,0,37,68.8v68.4A8.75,8.75,0,0,0,45.8,146Z"/><path class="cls-1" d="M8.8,121.3h0A8.75,8.75,0,0,1,0,112.5v-19a8.75,8.75,0,0,1,8.8-8.8h0a8.75,8.75,0,0,1,8.8,8.8v19A8.75,8.75,0,0,1,8.8,121.3Z"/><path class="cls-1" d="M113.6,29.8h-2.7a7.41,7.41,0,0,0-7.4,7.5V51.6a6.91,6.91,0,0,1-6.9,6.9h0a6.91,6.91,0,0,1-6.9-6.9h0V9a9,9,0,0,0-8.6-9,8.82,8.82,0,0,0-9,8.6V197a9,9,0,0,0,8.6,9,8.82,8.82,0,0,0,9-8.6v-43a6.91,6.91,0,0,1,6.9-6.9h0a6.91,6.91,0,0,1,6.9,6.9v14.3a7.38,7.38,0,0,0,7.4,7.4h2.7a7.38,7.38,0,0,0,7.4-7.4h0V37.3A7.53,7.53,0,0,0,113.6,29.8Zm-9.1,96.5a6.06,6.06,0,0,1-6.1,6.1h0a6.06,6.06,0,0,1-6.1-6.1V77.5a6.06,6.06,0,0,1,6.1-6.1h0a6.06,6.06,0,0,1,6.1,6.1h0Z"/><circle class="cls-1" cx="179.31" cy="103.01" r="8.3"/></g></g></g></g></svg>