<?xml version="1.0" encoding="utf-8"?>
<!-- Generator: Adobe Illustrator 26.3.0, SVG Export Plug-In . SVG Version: 6.00 Build 0)  -->
<svg version="1.1" id="Layer_1" xmlns="http://www.w3.org/2000/svg" xmlns:xlink="http://www.w3.org/1999/xlink" x="0px" y="0px"
	 viewBox="0 0 187.6 206" style="enable-background:new 0 0 187.6 206;" xml:space="preserve">
<style type="text/css">
	.st0{fill:#333333;}
</style>
<g id="Layer_2_00000047057879890524447650000016255229728344406418_">
	<g id="Layer_1-2">
		<path class="st0" d="M148.8,130.2L148.8,130.2c-4.9,0-8.8-3.9-8.8-8.8c0,0,0,0,0-0.1V84.6c0-4.9,3.9-8.8,8.8-8.8l0,0l0,0
			c4.9,0,8.8,3.9,8.8,8.8l0,0v36.8C157.6,126.3,153.7,130.2,148.8,130.2z"/>
		<path class="st0" d="M45.8,146L45.8,146c4.9,0,8.8-3.9,8.8-8.8l0,0V68.8c0-4.9-4-8.8-8.8-8.8l0,0C41,60,37,63.9,37,68.8v68.4
			C37,142.1,40.9,146,45.8,146z"/>
		<path class="st0" d="M8.8,121.3L8.8,121.3c-4.9,0-8.8-3.9-8.8-8.8v-19c0-4.9,3.9-8.8,8.8-8.8l0,0c4.9,0,8.8,3.9,8.8,8.8v19
			C17.6,117.4,13.7,121.3,8.8,121.3z"/>
		<path class="st0" d="M113.6,29.8h-2.7c-4.1,0-7.4,3.3-7.4,7.5v14.3c0,3.8-3.1,6.9-6.9,6.9l0,0c-3.8,0-6.9-3.1-6.9-6.9l0,0V9
			c0-4.8-3.8-8.8-8.6-9c-4.9-0.1-8.9,3.8-9,8.6c0,0.1,0,0.1,0,0.2V197c0,4.8,3.8,8.8,8.6,9c4.9,0.1,8.9-3.8,9-8.6c0-0.1,0-0.1,0-0.2
			v-42.8c0-3.8,3.1-6.9,6.9-6.9l0,0l0,0c3.8,0,6.9,3.1,6.9,6.9v14.3c0,4.1,3.3,7.4,7.4,7.4l0,0h2.7c4.1,0,7.4-3.3,7.4-7.4l0,0V37.3
			C121,33.2,117.7,29.9,113.6,29.8z M104.5,126.3c0,3.4-2.7,6.1-6.1,6.1l0,0l0,0c-3.4,0-6.1-2.7-6.1-6.1V77.5c0-3.4,2.7-6.1,6.1-6.1
			l0,0c3.4,0,6.1,2.7,6.1,6.1l0,0V126.3z"/>
		<ellipse class="st0" cx="179.3" cy="103" rx="8.3" ry="8.3"/>
	</g>
</g>
</svg>
