<svg xmlns="http://www.w3.org/2000/svg" viewBox="0 0 136.58 136.58"><defs><style>.cls-1{fill:#1e1a1c;}.cls-2{fill:#fff;}</style></defs><g id="Layer_2" data-name="Layer 2"><g id="OBJECTS"><rect class="cls-1" width="136.58" height="136.58" rx="23.34"/><path class="cls-2" d="M90,122.47H46.54a35.06,35.06,0,0,1-35-35V49.13a35,35,0,0,1,35-35H90a35,35,0,0,1,35,35V87.46A35.06,35.06,0,0,1,90,122.47ZM46.54,21.9A27.26,27.26,0,0,0,19.31,49.13V87.46a27.27,27.27,0,0,0,27.23,27.23H90a27.27,27.27,0,0,0,27.23-27.23V49.13A27.26,27.26,0,0,0,90,21.9Z"/><path class="cls-2" d="M68.29,99.46A31.17,31.17,0,1,1,99.45,68.29,31.19,31.19,0,0,1,68.29,99.46Zm0-54.55A23.39,23.39,0,1,0,91.67,68.29,23.41,23.41,0,0,0,68.29,44.91Z"/><path class="cls-2" d="M105.44,38.09A6.47,6.47,0,1,1,99,31.62,6.46,6.46,0,0,1,105.44,38.09Z"/></g></g></svg>