<svg xmlns="http://www.w3.org/2000/svg" viewBox="0 0 1193.52 398.85"><defs><style>.cls-1{fill:#fff;}</style></defs><g id="Layer_2" data-name="Layer 2"><g id="Layer_1-2" data-name="Layer 1"><path class="cls-1" d="M966.21,398.85l-18.47-2.78c.78-3.84,1.19-7.42,2.24-10.81q22.2-71.83,44.57-143.61c5.81-18.7,11.65-37.39,17.37-56.13,1.1-3.6,1.66-7.37,2.67-12-3.33,0-5.89-.1-8.44,0a25.26,25.26,0,0,0-3.88.88c-13.61,3-23,9.3-26,24.62-3.5,17.86-9.68,35.18-14.34,52.83-1.77,6.73-4.92,10.38-12.41,11-9.46.72-19.29.5-26.31-2.57,1.53-6.07,2.94-12.34,4.7-18.5,1.72-6,3.8-11.89,5.52-17.18-9.92,3.07-19.5,7.46-29.47,8.68-9,1.09-13.3,4.54-15.64,12.88-2.88,10.26-11.82,13.27-21,13.89-16.75,1.11-33.57,1.36-50.36,1.76-5.65.14-11.31-.48-17-.56-3.84-.06-6.4-1.6-8.57-4.89-5.68-8.57-7.34-17.49-4.55-27.49,4.19-15,8-30.17,11.86-45.28.61-2.37.86-4.84,1.16-6.59-6,2.75-12.17,5.38-18.12,8.38-1.2.6-2,2.47-2.49,3.93-6,19-11.89,38-17.83,57-1,3.17-2.42,6.23-3.1,9.46-.94,4.51-3.59,6.29-8,6.27-11.91,0-23.81,0-36.78,0,1-5.93,1.37-10.53,2.55-14.92,6.44-23.88,13.13-47.69,19.61-71.55a108.11,108.11,0,0,0,1.79-10.68c-13.87-.25-27.39,8.69-31.17,21-6.2,20.14-11.75,40.48-17.87,60.65-4.66,15.34-4.91,15.36-21.2,15.69-7.09.14-14.18,0-22.48,0L655,224.65c-5.13,2.09-8.83,3.94-12.74,5.09-6,1.78-12.21,2.95-18.25,4.68a6,6,0,0,0-3.53,3.12c-8.08,21-13.33,24.8-35.9,24.69-9.66,0-19.34-.12-28.95-.83-5.18-.38-7.43,1.51-8.79,6.2-6,20.56-12.14,41.06-18.29,61.57-6,20-12.16,40-18.08,60.07-1.39,4.7-3.57,7.13-9,7-11.77-.36-23.56-.11-36.08-.11a100.71,100.71,0,0,1,2-10.18Q486.64,322.8,506,259.75c5.85-19,11.89-38,17.83-57,.39-1.23.68-2.5,1.35-5-2.11,2-3.38,3.14-4.58,4.34-18.24,18.3-37.41,35.5-59.15,49.64a69.86,69.86,0,0,1-11.75,6.49,27.67,27.67,0,0,1-10.61,2c-8.33-.16-11.72-3.84-10.47-12,1.18-7.65,3.48-15.12,5.41-23.17a49,49,0,0,1-5.22,2.19c-8.07,2.41-16.19,4.63-24.23,7.11-1.32.4-2.38,1.68-3.47,2.66-.32.29-.32.92-.49,1.39C394.1,257,387.24,262,367.39,262c-11,0-22-.28-32.94-.91-5.16-.29-7.47,1.81-8.84,6.45-6.19,21-12.63,42-18.86,63q-9.08,30.54-17.82,61.19c-.89,3.12-2.31,4.28-5.46,4.32-11.31.16-22.62.62-33.94.73-6.35.06-7.08-.88-5.19-7.12q8.29-27.41,17-54.69c8.53-26.71,17.27-53.37,25.89-80.06.69-2.14,1.2-4.34,2.05-7.43-10.9,3.28-20.82,6.39-30.81,9.26-33.06,9.52-66.5,16.77-101.2,15.32-25.52-1.07-49.14-7.79-69.4-24.24-15.08-12.23-23-28.74-27.64-46.81-3.49-13.47-5.57-27.31-7.91-41-1.65-9.64-2.44-10.9-12.29-11.18-12.15-.33-24.31-.23-36.46-.32H0a27.54,27.54,0,0,1,6.75-16.26c.73-.86,2.75-.84,4.19-.85,10.32-.11,20.64-.23,31-.15,8.83.07,14.68-2.88,18.29-12,10-25,23.76-47.91,42.4-67.6C129.71,23,163.21,9.63,202.53,9.3,242.37,9,277.34,22.81,309.89,44.36c3.05,2,6,4.22,8.94,6.37A9.31,9.31,0,0,1,320,52.19c-5.81,6.94-12.45,12.86-20.71,16.62-1.74.8-4.67.38-6.47-.57-11.58-6.19-23-12.7-34.47-19.06-23.51-13-48.24-18.5-75-12.53-15.23,3.4-26.67,12.45-36.53,23.83a159.93,159.93,0,0,0-32,58c-2.54,8.19.63,12.64,9.16,12.65q52.45.06,104.91,0,31.22,0,62.44.16c1.46,0,2.91.12,5.4.23-3.62,5.58-6.64,10.68-10.2,15.38-.89,1.18-3.49,1.48-5.31,1.49q-65,.09-129.89,0h-28c-7.45,0-11.27,2.68-13.71,9.79-3.35,9.72-1.77,19.07,2.78,27.95,15.85,30.93,41.11,49.62,75.17,55.91,37.07,6.85,72.14-.09,105.23-17.54,2.39-1.25,4.39-4.44,5.28-7.14,8.33-25.38,16.24-50.9,24.57-76.27,3.25-9.9,4.23-10.47,14.71-10.44,9.74,0,19.47.64,30.24,1-1.08,5.1-1.61,9-2.74,12.73-9.15,30.17-18.43,60.31-27.59,90.48-1.14,3.77-1.82,7.69-2.77,11.79,1.61.32,2.71.58,3.83.75,14,2.11,16.46.94,20.33-12.69,8.76-30.81,17.07-61.75,25.63-92.61,1.44-5.17-1.27-8.55-5.75-12.5,4.47-1.25,7.94-2.73,11.54-3.12,6.27-.67,12.61-.83,18.93-.92,9.07-.13,15.63,7,13.84,15.88-3.18,15.77-7,31.42-10.65,47.1-1.58,6.79-3.24,13.56-5.09,20.28-1.05,3.81.35,6.21,4,6,4.49-.25,9.6-.44,13.24-2.64,9.29-5.61,16-13.5,19-24.52,4.57-16.63,10.06-33,15-49.54,1.62-5.44,5-7.8,10.52-7.8,9.31,0,18.63-.43,27.93-.23,6.36.13,6.9,1,5.29,7.29-2.18,8.52-4.71,16.95-7.1,25.42-3.24,11.49-6.55,23-9.72,34.49a68.87,68.87,0,0,0-1.09,7.63c3.21-1.93,5.69-3.07,7.75-4.72,12.84-10.32,25.68-20.63,38.27-31.24a20,20,0,0,0,5.29-8.13c2.91-7.76,5.34-15.71,7.87-23.61,1.17-3.66,3.25-5.84,7.32-6.39a144.07,144.07,0,0,1,38.19.07c-1.09,4.42-1.85,8.42-3.06,12.27-9.57,30.22-19.25,60.4-28.8,90.63-1.29,4.08-2.08,8.31-3.15,12.72,1.51.35,2.43.64,3.38.78,14.68,2.23,16.88,1.28,20.92-12.93q13.06-46,25.07-92.25c1-3.72-1.69-8.37-2.94-13.73,4.3-.73,9.92-1.9,15.59-2.59,3.78-.46,7.67,0,11.47-.36,10.78-.93,16.9,8.74,14.84,18.06-2.38,10.7-4.74,21.4-7.32,32s-5.54,21.2-8.11,31.85c-1.46,6-.37,7.51,5.91,7.76a18.33,18.33,0,0,0,8.63-1.59c10-5.08,17.44-12.88,21-23.61Q692.58,98.62,722.4,7c1.45-4.46,3.46-7,8.09-7,10.79,0,21.58,0,34,0-15.46,50.16-30.47,98.85-45.42,147.37,11.52-4.13,22.88-8.76,34.6-12.2A119.12,119.12,0,0,1,778.14,131c6.5-.48,9.27,2.05,10,8.59.69,6.21.08,12.56,0,18.84,0,1.14-.11,2.28-.2,3.84,6.59-1.48,10.59-5.92,14.43-10.4,9.47-11,21.49-17.66,35.48-20.9,9.25-2.13,18.48-2.17,27.47,1.46,3.11,1.26,5.51,2.87,5.18,6.9s-2.64,5.39-6,6.12c-19.6,4.19-15.87,2.38-21.36,20.52-6.54,21.6-12.75,43.31-18.94,65-2.74,9.62.6,13.94,10.45,14.14,1.33,0,2.68-.09,4,.06,7.22.83,11.93-2.56,14.25-9,4.63-13,9.47-25.87,13.25-39.08,4.51-15.8,8-31.87,11.91-47.84,1.33-5.43,3.42-11.08-4.09-15.2,8.68-4.92,16.66-6.25,24.75-2.86,4.83,2,9.22,5.25,13.5,8.37,3.39,2.47,4.24,6.35,3.31,10.33-3.48,14.86-7.11,29.69-10.67,44.53-1.32,5.49-2.43,11-3.91,16.47-1,3.81.38,5.57,4.05,5.36,13.44-.8,25.11-6.21,35.29-14.67,2.17-1.81,3.2-5.4,4-8.38,4.76-17.45,9.23-35,14-52.45,2.64-9.73,2.76-10.08,12.83-10.68,7.6-.45,15.27.31,22.91.46,3.31.07,4,1.92,3.15,4.62-1.44,4.58-3.06,9.1-5,14.74,3.5-1.14,6.45-1.86,9.21-3,8.58-3.62,16.88-8,25.67-10.93a69.23,69.23,0,0,1,21.35-3.87c10.07,0,15,6.35,14,16.46-.39,4.09-1.65,8.11-2.53,12.16-.36,1.72-.75,3.44-1.15,5.26,10-.17,16.24-4.55,19.53-13,2.16-5.55,4.1-11.32,7.22-16.32,1.69-2.71,5.47-5.38,8.59-5.75a419.74,419.74,0,0,1,90.2-.55c6.7.65,8.47,2.39,9.08,9a36.09,36.09,0,0,1-.82,12.31c-4.21,15.88-9,31.61-13.25,47.47-1.22,4.51-3.44,6.71-8.21,6.81-14.14.29-28.28.84-42.42,1.21-6,.15-12-.08-18,.31-1.55.1-3.89,1.58-4.34,2.93-3.11,9.41-6.44,18.82-8.47,28.49-1.78,8.5,1.67,11.85,10.47,12.34,12.75.72,23.66-3.41,32.09-13,3.27-3.72,6.76-5.29,11.65-4.93s9.92.08,15.66.08c-2.24,11.21-6.32,20.59-14.08,28-1.54,1.47-4.68,1.76-7.08,1.74-26.29-.24-52.58-.43-78.86-1.15-10-.27-15-5.42-14.26-15.36.66-8.82,2.9-17.62,5.34-26.18,3.46-12.12,7.78-24,11.62-36,.78-2.47,1-5.09,1.77-8.8-10.63,6.39-20.62,10.53-24.5,23.44-15.84,52.6-32.67,104.91-49.13,157.32a14.49,14.49,0,0,0-.63,2.41c-.33,2.43-2.29,5.36,1.56,6.72,3.44,1.21,6.72.9,8.69-2.62a77,77,0,0,0,5.26-10.71c1.22-3.27,3.09-4.82,6.54-4.75,4,.09,7.92,0,13,0-1.18,3.45-1.65,6.24-3,8.52-7,11.89-14.13,23.65-21.19,35.48-2.59,4.32-6.87,5.45-11.37,6.26-1.76.32-3.5.78-5.25,1.18ZM1126.07,194a39.24,39.24,0,0,0,7-.11c1.33-.25,3.22-1.39,3.56-2.52q5.25-17.58,9.9-35.34c.26-1-1.43-3.52-2.36-3.6a156.54,156.54,0,0,0-17.33-.54,5,5,0,0,0-3.56,2.84c-3,8.58-6.31,17.12-8.28,26C1112.39,192.16,1114.63,194.37,1126.07,194Z"/></g></g></svg>