<svg xmlns="http://www.w3.org/2000/svg" viewBox="0 0 479.42 122.89"><defs><style>.cls-1{fill:#fff;}</style></defs><g id="Layer_2" data-name="Layer 2"><g id="logo"><path class="cls-1" d="M381.15,111.38c-1.61,1.09-3,2-4.35,3-3.26,2.16-6.49,4.38-9.82,6.4a12,12,0,0,1-4,1.31c-3.18.59-5.69-.75-7.74-3.08-.85-1-1.65-2-2.56-3-1.21.7-2.4,1.43-3.61,2.09a32.57,32.57,0,0,1-12.3,4.08c-4.91.52-8.91-1.3-12.24-4.8-1-1-2-2.1-3-3.25-.7.49-1.35,1-2,1.43-3,1.92-5.93,4.14-9.16,5.64a11.14,11.14,0,0,1-15.28-7.28,6.2,6.2,0,0,1,.07-3.72c2.23-5.24,4.62-10.42,7.05-15.58,1.68-3.57,3.51-7.08,5.26-10.62a7,7,0,0,0,.6-1.42c.09-.35.12-.92-.08-1.08a1.3,1.3,0,0,0-1.17-.16c-1.92,1.2-3.84,2.41-5.67,3.74-6,4.38-9.56,10.49-12.55,17.09-2.26,5-4.73,9.85-7.2,14.73a22,22,0,0,1-2.6,3.72c-1.42,1.78-3.2,2.8-5.56,2-2.75-.91-4.8-2.57-4.94-5.64A25.42,25.42,0,0,1,269,112a13.83,13.83,0,0,1,.51-1.59,15.49,15.49,0,0,0-2.06.9c-2.46,1.56-4.88,3.18-7.33,4.77-4.38,2.85-9,5.22-14.19,6.12a16.37,16.37,0,0,1-15.17-4.59c-1.22-1.21-2.38-2.48-3.61-3.77-1.83,1.09-3.63,2.1-5.37,3.22a29.74,29.74,0,0,1-16.61,4.64,7.27,7.27,0,0,1-5.21-2c-2.62-2.43-5-5-4.51-8.91a26.56,26.56,0,0,1,1.8-6.54A69.26,69.26,0,0,1,209,85.19a66.4,66.4,0,0,0,4.14-5.57,1.54,1.54,0,0,0-.07-1.43c-.53-.61-1.15-.27-1.64.25-.3.32-.61.63-.88,1-1.12,1.45-2.23,2.92-3.33,4.39-5.55,7.37-11,14.82-16.69,22.08a46.86,46.86,0,0,1-12.95,12c-3.36,2-6.88,3.57-10.88,3.72a8.19,8.19,0,0,1-6.09-2.34c-.78-.74-1.55-1.84-2.45-2s-1.86.75-2.76,1.26a23.35,23.35,0,0,1-13.82,3.06A16.11,16.11,0,0,1,131.36,117a4.24,4.24,0,0,1-1-1.21c-.5-1.11-1.28-1.13-2.15-.63-1.42.82-2.79,1.71-4.18,2.58-5.1,3.19-10.59,5.09-16.68,4.6a28.51,28.51,0,0,1-5.93-1.32,7.77,7.77,0,0,1-4.74-4.62,28.11,28.11,0,0,1-2.16-9.16c-.71-7.47.28-14.84,1.33-22.2a.72.72,0,0,0-.1-.56c-.25.41-.51.82-.75,1.23-5.59,10-11.47,19.77-18.55,28.78a83.15,83.15,0,0,1-6.77,7.41c-1.38,1.37-1.87,1.25-3.51.29-2.73-1.62-3.18-2.38-2.47-5.48,1.52-6.73,3.21-13.42,4.75-20.15s3.22-13.76,3.66-20.85a8.74,8.74,0,0,0-.06-2.33c-.2.36-.4.71-.6,1.08-4.38,8-8.6,16.13-13.2,24a59.36,59.36,0,0,1-14,16.57c-5.39,4.36-11.6,6.24-18.39,6.57A30,30,0,0,1,15,120.51C6.47,117.7,1.75,111.6.29,102.94A18.89,18.89,0,0,1,3.75,88.3a13.38,13.38,0,0,1,8.09-5.38,24.74,24.74,0,0,1,13.25.36,12.41,12.41,0,0,1,3.84,2.1,3.28,3.28,0,0,1,.47,4.73,2.53,2.53,0,0,1-1.73.8,25.09,25.09,0,0,1-4.05-.36,8.6,8.6,0,0,0-9.91,7.91,45.27,45.27,0,0,0,0,4.66,6.22,6.22,0,0,0,1.85,4.17c4.18,4.37,9.86,5.47,15.74,3A26.19,26.19,0,0,0,43,100.4,182.33,182.33,0,0,0,56.38,76.33c6.65-14,13-28.09,19.68-42.08C81,23.86,86.21,13.62,92.87,4.18a21.54,21.54,0,0,1,2.53-3C96.88-.27,99-.35,101.2.76a3.84,3.84,0,0,1,2.07,4.45A42.45,42.45,0,0,1,100.91,13,167.07,167.07,0,0,0,89.2,50.2C88,56.7,87.39,63.31,86.51,69.87L87,70c.74-1.05,1.47-2.11,2.22-3.16,8-11.16,15.87-22.44,24.11-33.43A225.56,225.56,0,0,1,139.05,5a36.11,36.11,0,0,1,3.74-3,5.41,5.41,0,0,1,4.67-.87c2,.53,3,2,2.39,4a14.32,14.32,0,0,1-1.43,3.14c-7.74,13.14-15.69,26.17-23.2,39.44A179.16,179.16,0,0,0,109.58,83c-1.83,5.89-3.29,11.87-3,18.1a24.33,24.33,0,0,0,1.13,6.09c1.18,3.7,3.35,4.68,7.06,3.43A26.8,26.8,0,0,0,130.31,98c1.81-3.24,3.51-6.56,5.61-9.61a47.91,47.91,0,0,1,20.66-17.5,24,24,0,0,1,15.35-1.54,7.52,7.52,0,0,1,2.64,1,3.38,3.38,0,0,0,4.47-.12,8.39,8.39,0,0,1,7.21-1.19c2.47.62,3.3,1.89,2.34,4.25-1.6,3.9-3.39,7.74-5.29,11.52-2.83,5.63-5.84,11.18-8.74,16.78a25.57,25.57,0,0,0-1.43,3.41c-.17.48-.2,1.44,0,1.54a2.32,2.32,0,0,0,1.79.06,12.33,12.33,0,0,0,3.28-2.15,130.09,130.09,0,0,0,9.93-10.7c4.6-5.92,8.76-12.19,13.11-18.3a6.31,6.31,0,0,0,.6-6.54c-2.4-6-2.44-12.13-1.09-18.36,1.13-5.24,7.45-8.86,11.19-8.92a4.33,4.33,0,0,1,1.3.16,11.87,11.87,0,0,1,8,10.44,23.51,23.51,0,0,1-2.53,11.44c-.52,1-1,2.08-1.46,3.15-.56,1.41-.22,1.87,1.26,1.78,1-.06,2.07-.26,3.1-.33a8.23,8.23,0,0,1,5.17,1.17c2.31,1.48,3.1,3.75,1.62,6-2.82,4.36-5.9,8.53-8.83,12.81s-6.11,8.79-8.92,13.33a24.07,24.07,0,0,0-2.46,6.31c-.58,2.16.53,3.33,2.78,3.11,3.47-.34,6.46-2,9.32-3.85a43.3,43.3,0,0,0,9.12-8.45c6.74-7.91,13.35-15.92,20.07-23.85,3.1-3.65,6.31-7.22,9.5-10.8.63-.71,1.42-1.29,2.08-2a3.8,3.8,0,0,1,4.72-.84A22.29,22.29,0,0,1,270,63.84c1.24,1,1.33,1.71.44,3-2.18,3.25-4.32,6.55-6.78,9.57a6,6,0,0,0-1.18,6.12c1.26,4.56,2,9.27,2.92,13.91.18.85.36,1.71.56,2.64a2.57,2.57,0,0,0,.75-.2c3.49-2.45,7-4.83,10.44-7.41a17.39,17.39,0,0,0,5-6.93q10.13-22.08,20.25-44.18c1.19-2.61,2.46-5.19,3.78-7.74,1.74-3.4,7.24-4.65,10.35-2.42,1.3.94,1.79,1.88,1.24,3.41-1.43,4.06-2.91,8.11-4.56,12.08-3.59,8.66-7.29,17.28-10.94,25.91A2.91,2.91,0,0,0,302,73l2.71-1.58c2.68-1.58,5.36-3.17,8.51-3.68s5.72.62,7.17,3.51c2.1,4.17,2.72,8.47,1,13a140.91,140.91,0,0,1-10.05,20,38.6,38.6,0,0,0-1.81,3.5,6.32,6.32,0,0,0-.32,1.52l.38.33a26.34,26.34,0,0,0,3.26-1.8,39.37,39.37,0,0,0,10.6-12.39,65.73,65.73,0,0,1,22.13-23.48,24.19,24.19,0,0,1,16.77-3.53,9.68,9.68,0,0,1,5.22,2.48c1.42,1.27,1.45,1.14,2.52-.43a4.79,4.79,0,0,1,2.1-1.64,9.89,9.89,0,0,1,7.48.18c1.94.8,2.44,1.9,1.55,3.78-2.73,5.77-5.6,11.48-8.33,17.24q-3.39,7.14-6.55,14.37a5.83,5.83,0,0,0-.2,3,1.59,1.59,0,0,0,2.23,1.35,17.8,17.8,0,0,0,3.86-1.85c5.76-3.79,9.57-9.17,12.49-15.31a180.7,180.7,0,0,1,15.6-27C407.61,54.1,415.81,44.43,426,36.64c3.25-2.49,6.62-4.83,10.7-5.71a14.56,14.56,0,0,1,5.3-.24,4.56,4.56,0,0,1,3.81,5.78,45.32,45.32,0,0,1-2.49,7.34c-3.39,7.81-7,15.53-12.48,22.14a117,117,0,0,1-19.19,18c-3.85,2.92-7.85,5.64-11.78,8.46-.65.47-1.26,1-1.9,1.46-4.44,3.25-5.21,7.88-4.52,12.84.57,4.1,4.21,5.87,7.91,3.91a25,25,0,0,0,5.35-4c6.69-6.37,11.83-13.91,16.27-22,5.06-9.17,10.28-18.23,16.71-26.54a119.62,119.62,0,0,1,26.63-25c2.52-1.74,5.23-2.9,8.4-2.51,3.54.44,5.28,2.58,4.49,6.05a89,89,0,0,1-2.7,9.16c-3.55,10.3-9.79,18.84-17.43,26.49a190,190,0,0,1-22.21,19.34A37.16,37.16,0,0,0,431.11,97c-3,3.43-2.51,8-.81,11.48a4.51,4.51,0,0,0,5,2.44,17.26,17.26,0,0,0,9.12-5c3-2.89,5.78-6.06,8.63-9.14,1.44-1.55,2.76-3.22,4.26-4.71,1.7-1.69,3.46-1.14,4,1.23a6.27,6.27,0,0,1-.12,2.58,7.65,7.65,0,0,1-.89,2.21c-4.78,8.21-10.65,15.45-18.72,20.69a20.69,20.69,0,0,1-8.2,3.5c-6.06.9-10.76-1.61-14.43-6.23a19.15,19.15,0,0,1-2.4-4.26c-.42-.95-.86-1.06-1.58-.52-1.24.94-2.46,1.91-3.64,2.91a37.65,37.65,0,0,1-15.29,8.17c-6.18,1.55-10.52-.37-13.93-6.76a9.52,9.52,0,0,1-.58-2.42C381.44,112.68,381.32,112.17,381.15,111.38Zm-212-30.16c0-3.93-1.05-4.92-4.42-4.47a13.24,13.24,0,0,0-6.39,2.81,48.63,48.63,0,0,0-16.1,21.89,15.2,15.2,0,0,0-.82,3.84c-.32,3.51,2.26,5.77,5.67,4.9a20.92,20.92,0,0,0,4.65-1.83c5.87-3.13,10-7.93,13.19-13.69M360.67,80c-.33-2.62-1.71-3.58-4.33-3.11a16.42,16.42,0,0,0-6.95,3.35,45.43,45.43,0,0,0-13,15.75,22.49,22.49,0,0,0-2.61,8.69,28.22,28.22,0,0,0,.47,3.06,3.86,3.86,0,0,0,4.76,3,14.36,14.36,0,0,0,3.07-1,25.63,25.63,0,0,0,7.59-5.36m-97.91-.92c0-.55,0-1.12,0-1.67l.28,0c-.42-2.91-.71-5.85-1.3-8.72-.37-1.8-1.16-2-2.45-.67A62.24,62.24,0,0,0,238.69,105a2.67,2.67,0,0,0,0,2.83,16.61,16.61,0,0,0,4.68,5.36,2.43,2.43,0,0,0,3.16,0M466.88,44.07l-.4-.25a8.34,8.34,0,0,0-1.4.8A33.81,33.81,0,0,0,462.42,47,166.61,166.61,0,0,0,447.25,65.4c-2,2.81-3.88,5.75-5.75,8.68a23.22,23.22,0,0,0-1.36,3.06,4.8,4.8,0,0,0,.84-.22,10.16,10.16,0,0,0,1.38-.94C448.1,70.9,454,65.92,458.31,59.5a85.69,85.69,0,0,0,8-13.45A14.49,14.49,0,0,0,466.88,44.07Zm-34,0-.42-.27c-.75.62-1.53,1.2-2.24,1.86a147.15,147.15,0,0,0-19,21.5c-1.92,2.69-3.67,5.51-5.44,8.3a12.75,12.75,0,0,0-.87,2.25c.42,0,.56,0,.64-.09.52-.37,1.05-.72,1.54-1.13a102.94,102.94,0,0,0,18.32-19.67c2.46-3.52,4.65-7.23,6.92-10.89A7.33,7.33,0,0,0,432.9,44.07ZM212.81,55.38c-.32-1.22-.56-2.47-1-3.65a1.72,1.72,0,0,0-1.18-1c-.4,0-1,.53-1.19,1a10.44,10.44,0,0,0-.44,9c.16.39.59.9.93.92s.86-.4,1.08-.76A12.81,12.81,0,0,0,212.81,55.38Z"/></g></g></svg>