<svg xmlns="http://www.w3.org/2000/svg" viewBox="0 0 109.8 24.6"><defs><style>.cls-1{fill:#fff;}</style></defs><g id="Layer_2" data-name="Layer 2"><g id="Layer_1-2" data-name="Layer 1"><path class="cls-1" d="M35.1,12.4c-.9-.2-1.6-.3-1.6-.9,0-.3.3-.7,1.4-.7a4.24,4.24,0,0,1,2.5,1l1.8-1.7a7.14,7.14,0,0,0-4.4-1.5c-2.8,0-4.2,1.7-4.2,3.3a3.16,3.16,0,0,0,.7,1.9,4.17,4.17,0,0,0,1.6.9l1.3.3a8.47,8.47,0,0,1,1.7.4.57.57,0,0,1,.4.6c0,.7-1.1,1-1.8,1a4.22,4.22,0,0,1-2.9-1.4l-1.8,1.7a6.33,6.33,0,0,0,4.8,1.9c2.3,0,4.7-1.1,4.7-3.5S37.1,12.7,35.1,12.4Zm8.7-6.3H40.9V9.2H39.5V11h1.4v4.8a3.79,3.79,0,0,0,.4,2.2A3,3,0,0,0,44,19a8.87,8.87,0,0,0,1.5-.2V16.5h-1c-.8,0-.8-.5-.8-1.1V11h1.9V9.2H43.7V6.1ZM54.6,10A4.71,4.71,0,0,0,51,8.6c-3.9,0-5.1,3.1-5.1,5.5a4.75,4.75,0,0,0,5,5.1,5.22,5.22,0,0,0,3.7-1.4,7.89,7.89,0,0,0,1.2-1.5l-2.2-1.1a2.62,2.62,0,0,1-2.5,1.7,2.25,2.25,0,0,1-2.3-2.5h7.1A5.85,5.85,0,0,0,54.6,10ZM49,12.7a2.55,2.55,0,0,1,.6-1.3,2.09,2.09,0,0,1,1.5-.6,2.17,2.17,0,0,1,1.4.5,2,2,0,0,1,.5,1.4Zm8.2-7.3h2.9V7.7H57.2Zm0,3.5h2.9v9.9H57.2Zm12.2.2a3.66,3.66,0,0,0-1.8-.4,4.78,4.78,0,0,0-1.8.4,2.72,2.72,0,0,0-1,.8V9H61.9v9.9h2.9V13.6c0-1.2,0-2.5,1.5-2.5a1.21,1.21,0,0,1,1.3.8,5,5,0,0,1,.1,1.5V19h2.9V12.2C70.7,10.5,70.4,9.6,69.4,9.1Zm8.9-.5a3.47,3.47,0,0,0-2.8,1.2V5.4H72.7V18.8h2.7l-.1-1a3.72,3.72,0,0,0,2.9,1.3,3.87,3.87,0,0,0,3.7-2.4,7.65,7.65,0,0,0,.6-3c0-4-2.7-5.1-4.2-5.1Zm.7,7.6a1.78,1.78,0,0,1-1.5.7,2,2,0,0,1-1.7-.9,5.45,5.45,0,0,1-.5-2.2c0-.6,0-2.9,2.1-3,1.6-.1,2.1,1.4,2.1,3a3.27,3.27,0,0,1-.5,2.4ZM91.8,10a4.71,4.71,0,0,0-3.6-1.4c-3.9,0-5.1,3.1-5.1,5.5a4.75,4.75,0,0,0,5,5.1,5.22,5.22,0,0,0,3.7-1.4A7.89,7.89,0,0,0,93,16.3l-2.2-1.1a2.62,2.62,0,0,1-2.5,1.7A2.25,2.25,0,0,1,86,14.4h7.1A6.32,6.32,0,0,0,91.8,10Zm-5.7,2.7a2.55,2.55,0,0,1,.6-1.3,2.09,2.09,0,0,1,1.5-.6,2.17,2.17,0,0,1,1.4.5,2,2,0,0,1,.5,1.4Zm11-3.8H94.3v9.9h2.9V13.2c0-1.2.4-1.5,1.8-1.7l1-.2V8.7a5.66,5.66,0,0,0-2.9,1.1Zm9.9,0v.9a3.33,3.33,0,0,0-2.6-1.1c-3.3,0-4.2,2.9-4.2,4.8a4.7,4.7,0,0,0,1.8,4.1,4.14,4.14,0,0,0,2.3.6,5,5,0,0,0,2.6-.8v1.1c0,.8,0,1.9-1.8,1.9a1.69,1.69,0,0,1-.9-.2,1.64,1.64,0,0,1-.9-1.4h-3a3.05,3.05,0,0,0,.8,2.3,5.57,5.57,0,0,0,3.8,1.2,7.33,7.33,0,0,0,3.4-.8,3.23,3.23,0,0,0,1.5-3.2V8.8H107Zm-2,7.3c-1.8,0-1.9-1.7-1.9-2.6,0-1.4.3-2.6,1.7-2.6a2,2,0,0,1,1.6.7,4.64,4.64,0,0,1,.4,1.9C106.8,15,106.4,16.2,105,16.2ZM12.3,0A12.3,12.3,0,1,0,24.6,12.3,12.29,12.29,0,0,0,12.3,0Zm0,21.8a9.5,9.5,0,1,1,9.5-9.5A9.56,9.56,0,0,1,12.3,21.8Z"/><path class="cls-1" d="M12.88,9.9v5.6c0,.8.6,1.1,1.2.7L19,13.4c.7-.4.7-1,0-1.4l-4.9-2.8c-.7-.4-1.2-.1-1.2.7Z"/></g></g></svg>