<svg xmlns="http://www.w3.org/2000/svg" width="111" height="25" viewBox="0 0 111 25">
  <g fill="#C90526">
    <path d="M35.7,12.4 C34.8,12.2 34.1,12.1 34.1,11.5 C34.1,11.2 34.4,10.8 35.5,10.8 C36.2,10.8 37.1,11.1 38,11.8 L39.8,10.1 C39.1,9.6 37.7,8.6 35.4,8.6 C32.6,8.6 31.2,10.3 31.2,11.9 C31.2,12.6 31.5,13.3 31.9,13.8 C32.3,14.2 32.9,14.5 33.5,14.7 C33.9,14.8 34.4,14.9 34.8,15 C35.4,15.1 36,15.2 36.5,15.4 C36.7,15.5 36.9,15.6 36.9,16 C36.9,16.7 35.8,17 35.1,17 C34,17 33,16.4 32.2,15.6 L30.4,17.3 C31,17.9 32.4,19.2 35.2,19.2 C37.5,19.2 39.9,18.1 39.9,15.7 C40,13.3 37.7,12.7 35.7,12.4 Z M44.4,6.1 L41.5,6.1 L41.5,9.2 L40.1,9.2 L40.1,11 L41.5,11 L41.5,15.8 C41.5,16.7 41.5,17.4 41.9,18 C42.5,18.9 43.6,19 44.6,19 C45.1,19 45.5,18.9 46.1,18.8 L46.1,16.5 L45.1,16.5 C44.3,16.5 44.3,16 44.3,15.4 L44.3,11 L46.2,11 L46.2,9.2 L44.3,9.2 L44.3,6.1 L44.4,6.1 Z M55.2,10 C53.9,8.6 52.2,8.6 51.6,8.6 C47.7,8.6 46.5,11.7 46.5,14.1 C46.5,17.3 48.6,19.2 51.5,19.2 C53.1,19.2 54.4,18.6 55.2,17.8 C55.7,17.3 56.1,16.8 56.4,16.3 L54.2,15.2 C53.8,15.9 53.3,16.9 51.7,16.9 C50.1,16.9 49.4,15.7 49.4,14.4 L56.5,14.4 C56.6,13.4 56.5,11.4 55.2,10 L55.2,10 Z M49.6,12.7 C49.7,12.3 49.8,11.8 50.2,11.4 C50.5,11.1 51,10.8 51.7,10.8 C52.2,10.8 52.8,11 53.1,11.3 C53.5,11.7 53.6,12.3 53.6,12.7 L49.6,12.7 Z M57.8,5.4 L60.7,5.4 L60.7,7.7 L57.8,7.7 L57.8,5.4 Z M57.8,8.9 L60.7,8.9 L60.7,18.8 L57.8,18.8 L57.8,8.9 Z M70,9.1 C69.5,8.8 68.8,8.7 68.2,8.7 C67.5,8.7 66.9,8.9 66.4,9.1 C65.9,9.3 65.7,9.6 65.4,9.9 L65.4,9 L62.5,9 L62.5,18.9 L65.4,18.9 L65.4,13.6 C65.4,12.4 65.4,11.1 66.9,11.1 C67.5,11.1 68,11.3 68.2,11.9 C68.3,12.2 68.3,12.5 68.3,13.4 L68.3,19 L71.2,19 L71.2,12.2 C71.3,10.5 71,9.6 70,9.1 Z M78.9,8.6 C77.2,8.6 76.5,9.4 76.1,9.8 L76.1,5.4 L73.3,5.4 L73.3,18.8 L76,18.8 L75.9,17.8 C76.3,18.2 77.1,19.1 78.8,19.1 C80.8,19.1 82,17.9 82.5,16.7 C82.9,15.8 83.1,14.7 83.1,13.7 C83.1,9.7 80.4,8.6 78.9,8.6 L78.9,8.6 Z M79.6,16.2 C79.4,16.5 78.9,16.9 78.1,16.9 C77.4,16.9 76.8,16.6 76.4,16 C76.1,15.4 75.9,14.5 75.9,13.8 C75.9,13.2 75.9,10.9 78,10.8 C79.6,10.7 80.1,12.2 80.1,13.8 C80.2,14.2 80.2,15.5 79.6,16.2 L79.6,16.2 Z M92.4,10 C91.1,8.6 89.4,8.6 88.8,8.6 C84.9,8.6 83.7,11.7 83.7,14.1 C83.7,17.3 85.8,19.2 88.7,19.2 C90.3,19.2 91.6,18.6 92.4,17.8 C92.9,17.3 93.3,16.8 93.6,16.3 L91.4,15.2 C91,15.9 90.5,16.9 88.9,16.9 C87.3,16.9 86.6,15.7 86.6,14.4 L93.7,14.4 C93.7,13.4 93.7,11.4 92.4,10 L92.4,10 Z M86.7,12.7 C86.8,12.3 86.9,11.8 87.3,11.4 C87.6,11.1 88.1,10.8 88.8,10.8 C89.3,10.8 89.9,11 90.2,11.3 C90.6,11.7 90.7,12.3 90.7,12.7 L86.7,12.7 Z M97.7,8.9 L94.9,8.9 L94.9,18.8 L97.8,18.8 L97.8,13.2 C97.8,12 98.2,11.7 99.6,11.5 L100.6,11.3 L100.6,8.7 C99.1,8.9 98.4,9.3 97.7,9.8 L97.7,8.9 Z M107.6,8.9 L107.6,9.8 C107.2,9.4 106.5,8.7 105,8.7 C101.7,8.7 100.8,11.6 100.8,13.5 C100.8,15.2 101.3,16.7 102.6,17.6 C103.2,18 104,18.2 104.9,18.2 C106.2,18.2 106.9,17.7 107.5,17.4 L107.5,18.5 C107.5,19.3 107.5,20.4 105.7,20.4 C105.2,20.4 105,20.3 104.8,20.2 C104,19.8 104,19.2 103.9,18.8 L100.9,18.8 C100.9,19.3 100.9,20.3 101.7,21.1 C102.2,21.6 103.5,22.3 105.5,22.3 C106.4,22.3 107.9,22.1 108.9,21.5 C110.3,20.7 110.4,19.4 110.4,18.3 L110.4,8.8 L107.6,8.8 L107.6,8.9 Z M105.6,16.2 C103.8,16.2 103.7,14.5 103.7,13.6 C103.7,12.2 104,11 105.4,11 C106.2,11 106.8,11.4 107,11.7 C107.3,12.2 107.4,13.2 107.4,13.6 C107.4,15 107,16.2 105.6,16.2 Z M12.9,0 C6.1,0 0.6,5.5 0.6,12.3 C0.6,19.1 6.1,24.6 12.9,24.6 C19.7,24.6 25.2,19.1 25.2,12.3 C25.2,5.5 19.7,0 12.9,0 Z M12.9,21.8 C7.7,21.8 3.4,17.5 3.4,12.3 C3.4,7.1 7.7,2.8 12.9,2.8 C18.1,2.8 22.4,7.1 22.4,12.3 C22.4,17.5 18.2,21.8 12.9,21.8 Z"/>
    <path d="M14.5,9.4 L14.5,15 C14.5,15.8 15.1,16.1 15.7,15.7 L20.6,12.9 C21.3,12.5 21.3,11.9 20.6,11.5 L15.7,8.7 C15,8.3 14.5,8.6 14.5,9.4 L14.5,9.4 Z"/>
  </g>
</svg>
