<svg xmlns="http://www.w3.org/2000/svg" viewBox="0 0 523.53 206.04"><defs><style>.cls-1,.cls-2{fill:#fff;}.cls-2{fill-rule:evenodd;}</style></defs><g id="Layer_2" data-name="Layer 2"><g id="logo"><path class="cls-1" d="M57,107.56A50.56,50.56,0,1,1,107.55,57,50.56,50.56,0,0,1,57,107.56M57,0a57,57,0,1,0,57,57A57,57,0,0,0,57,0"/><path class="cls-1" d="M75.89,67.91A2.85,2.85,0,0,1,72,69l-7-4V61.65L67.9,60l6.95,4a2.86,2.86,0,0,1,1,3.89m-15.63-9L57,60.78l-3.27-1.89V55.11L57,53.22l3.27,1.89ZM54.14,38a2.85,2.85,0,1,1,5.69,0v8L57,47.69l-2.85-1.64ZM48.93,64.94l-7,4A2.85,2.85,0,1,1,39.13,64l6.95-4,2.84,1.64v3.29ZM98.41,80l-8.28-9.66a1.31,1.31,0,0,0-.36-.3,1.43,1.43,0,0,0-1.33,0,4.4,4.4,0,0,1-6.22-3.16h0a11.12,11.12,0,0,0-5.41-7.63L73.1,57,94.17,44.85l-2.61-4.52L67.89,54,65,52.36V49.07L88.71,35.4,86.1,30.88,65,43V38.76a11.18,11.18,0,0,0-3.91-8.5,4.41,4.41,0,0,1,.36-7,1.42,1.42,0,0,0,.62-1.18,1.7,1.7,0,0,0-.07-.46l-4.23-12a.89.89,0,0,0-.84-.6.86.86,0,0,0-.83.6l-4.23,12a1.44,1.44,0,0,0-.08.46,1.42,1.42,0,0,0,.62,1.18h0a4.4,4.4,0,0,1,.37,7,11.18,11.18,0,0,0-3.91,8.5V43L27.83,30.88,25.22,35.4,48.9,49.07v3.29L46.06,54,22.38,40.33l-2.61,4.52L40.84,57l-3.71,2.14a11.17,11.17,0,0,0-5.41,7.63h0a4.37,4.37,0,0,1-2.13,3,4.42,4.42,0,0,1-4.1.16,1.43,1.43,0,0,0-1.33,0,1.31,1.31,0,0,0-.36.3L15.52,80a.88.88,0,0,0,.83,1.45l12.5-2.34A1.41,1.41,0,0,0,30,77.77,4.4,4.4,0,0,1,35.85,74a11.11,11.11,0,0,0,9.31-.87L48.87,71V95.3h5.22V68l2.85-1.64L59.78,68V95.3H65V71l3.7,2.13A11.2,11.2,0,0,0,78,74a4.4,4.4,0,0,1,5.85,3.8,1.43,1.43,0,0,0,.71,1.13,1.23,1.23,0,0,0,.44.16l12.5,2.34a.9.9,0,0,0,.94-.42.81.81,0,0,0,0-1"/><polygon class="cls-1" points="436.46 45.42 417.44 45.42 417.44 7.39 400.06 7.39 400.06 106.6 417.44 106.6 417.44 63.04 436.46 63.04 436.46 106.6 454.21 106.6 454.21 7.39 436.46 7.39 436.46 45.42"/><polygon class="cls-1" points="169 7.39 155.88 46.04 144 7.39 126.67 7.39 145.95 68.22 145.95 106.6 165.25 106.6 165.25 66.25 185.24 7.39 169 7.39"/><polygon class="cls-1" points="285.93 54.58 276.27 7.39 249.15 7.39 249.15 106.6 264.7 106.6 264.7 31.82 277.98 96.83 292.5 96.83 304.28 30.76 304.28 106.6 322.52 106.6 322.52 7.39 294.25 7.39 285.93 54.58"/><path class="cls-1" d="M484.84,67l7.39-44.37L499.41,67ZM507.16,7.39H480.29L462.16,106.6h16.08l3.84-23.09h20l3.73,23.09h17.72Z"/><path class="cls-1" d="M353.14,67l7.39-44.37L367.71,67ZM348.59,7.39,330.45,106.6h16.08l3.85-23.09h20l3.73,23.09h17.71L375.45,7.39Z"/><path class="cls-1" d="M202.23,67l7.39-44.37L216.79,67ZM197.67,7.39,179.53,106.6h16.08l3.85-23.09h20l3.73,23.09H240.9L224.53,7.39Z"/><path class="cls-2" d="M470.23,191.32c11.18-.71,22.15-.18,35.7-.29-11.25-1-24.81-.37-40.63-1.24,9.05-.2,19.76.19,25.27.4,7.14-.19,19.92.16,30.2.32.1-.32-1.94-.14-2.74-.25.56-.62,4.65-.14,5.5-.66-5.53-.63-12.19-.93-18.09-1.39.77-.36,4.66.22,5.5-.12-7.85-.85-18.5-.49-27.47-1.28-3.12-.27-5.4-.86-8.24-1-9.64-.56-19.52,0-30.25-.13-13.81,0-29.07-.19-44.56.12,1.08-.41,5.47,0,6.6-.37-12.18-.25-24.22-.25-38,.06l-35.76.74-40.16,1.2-21.47.35L161.54,191.7c-10.48.22-21.41.48-31.44,1.13l-24.75,2.09c-3.71.36-7.95.58-13.17,1.54a171.52,171.52,0,0,0-16.92,3c.48.16-1,0,0,0-3.45.64-1.76,1.39-5.36,2.11.1.26,1.86-.13,2.22,0-1.79.45-4.6,1.23-1.55,1.22-1.64.43.88.66,1.46.63,5.61-.3,2.19,1.94,3.74,2.34,21,1.08,35.68-2,58.93-2.8,13.49-.61,29.07-1.83,44-2.28l57.67-2.45,34-1.29c9.06-.47,19.91-.72,28-1,16.88-.6,34.95-2,52.69-2.29l33.5-.5c-.09-.17-1-.1-1.65-.11,5.88.19,10.51-.69,19.22-.43-4.16.58,1.49.24,4.4.1,13.79-.67,31.89-.62,43.93-1.48l2.2.31c.62,0,.31-.15,0-.15h-.55c-.1-.12.21-.14.55-.14,19.13.2,17.56,0,17.56,0"/><path class="cls-1" d="M154.93,172.09c-.05,4.57.18,6.31.5,7a10,10,0,0,1-5.53,2.74,4.33,4.33,0,0,1-3.38-1.19c-.59-1.34-.38-3.92-.28-5.34.53-8,3.33-20.74,4.5-27.08.11-.62-.73-1-1.09-.61-12.27,13.72-21.34,25.31-23,29.22a30.86,30.86,0,0,1-5.41,2.24,7.17,7.17,0,0,1-3.2-2.14,45.19,45.19,0,0,0-.24-4.74c-.58-5.84.18-17.29-.47-21.42-.07-.44-.74-.59-1.19-.09-5.95,10-12.71,21.47-17.74,29.43a8.37,8.37,0,0,1-3.79,2.29c-1.28-.14-3-3.26-2.44-4.25,4.15-6.78,4.4-6.57,11.15-17.42,6-9.7,10.17-16.49,11.53-19.54.58-1.3,2.61-1.93,4.3-2.31a17.8,17.8,0,0,1,4.17,1.74c1.53,6.07.09,19.14,1.12,26.07.13.75.73.85,1.24.3,7.32-8.54,18.62-20.49,25.76-28.58a14.91,14.91,0,0,1,6.22-1.65c1,.74,2.69,2.32,3,3.77-2.31,5.72-5.62,22.92-5.72,31.56"/><path class="cls-1" d="M221.34,162.7c7.48-4.16,13.2-7.75,17.57-11.74a12.71,12.71,0,0,1,3.38.34,4.13,4.13,0,0,1,1.17,2.77c-2.39,2.7-13,7.5-17,9.91-.37.18-.38.44-.15.74,3.6,3.71,8.86,8.27,13.67,9.57a3.78,3.78,0,0,1-.46,2.07c-1.48.85-4.42,2.4-6.52,2.53-5.77-5.41-9.5-8.9-13.59-12.53a.58.58,0,0,0-.84.2,67.31,67.31,0,0,0-3.49,10.84,12.86,12.86,0,0,1-5.59,2.1c-.91-.23-3.49-1-3.9-1.74,1.57-2.17,5.41-9.5,11.28-24.44,4.8-12.29,6.65-17.65,5.58-19.35a24.9,24.9,0,0,1,7.08-2.11,7.91,7.91,0,0,1,2.7,2.49c-3.85,8.31-7.06,15.54-11.9,27.5a.74.74,0,0,0,1,.85"/><path class="cls-1" d="M265.74,149c4.9-.11,10.61.73,11.13,3.68.69,4.68-9.19,11.46-21.52,9.6a12.26,12.26,0,0,0-2.2,8.14c.23,1.53,1.55,2.6,4,2.5,9.15-.36,21.2-6.27,27.76-11.76.43.44.29.75-.4,1.5-1.25,1.33-3.79,2.88-4.12,4.4C273,173.62,261,178.39,252.9,178.63c-5.13.16-7.35-1.57-7.66-4.69-.74-7.39,6.75-18.42,15.55-24.21a20.24,20.24,0,0,1,4.95-.75m-9.47,11.41c6-.13,14.38-3,14-6.37-.16-1.64-4.34-2-7.18-1.78a35.19,35.19,0,0,0-6.86,8.15"/><path class="cls-1" d="M357.69,158.18c-3.37,4.07-11.08,13.46-11.46,16.35a12.49,12.49,0,0,1-5.56,2.42,10.62,10.62,0,0,1-3.2-1.91,98.84,98.84,0,0,1-2.78-15.1c-.48-4.76-.82-7.08-1.16-10,0-.7-.55-.94-1.12-.44-6.44,7.05-17.64,17.65-25.72,26.77a19,19,0,0,1-6.64,1.62c-1.68-1.2-2-3.41-2.27-6-.83-8.3,6.15-24.42,5.62-29.75a2.43,2.43,0,0,1,.41-1.49,13.66,13.66,0,0,1,4.9-2.33,4.53,4.53,0,0,1,2.74,2.9c.25,2.55-1.36,7.6-3,12.82s-3.18,10.6-2.85,13.89c0,.41.47.56.88.14,9.89-8.1,20.56-20,24.42-25.59a20.88,20.88,0,0,1,6.9-2.37,8.82,8.82,0,0,1,2.86,1.83c.32,3.2.48,9.83,1.3,18a34,34,0,0,0,1.14,6.1c.19.69.77.7,1.17.27,6.87-8.3,17.25-20.23,23.17-27.54,1.27-.69,1.6-1.48,3.24-1.76a3.65,3.65,0,0,1,2.63,1.75c-2.51,5.11-12.29,15.35-15.66,19.42"/><path class="cls-1" d="M414.24,150.33c-.27,6.26-.64,9.6-.3,14.28a7.33,7.33,0,0,0,.41,2.13c.17.41.49.57.8.14a162.45,162.45,0,0,1,21.49-19.52c1.49.11,3.79.31,4.94,1-11.54,9-16.55,15-24.08,25.06a18.36,18.36,0,0,1-7.11,2.54,22,22,0,0,1-3-9.58,95.89,95.89,0,0,1-.15-10.65c0-.94-3.08,1.84-3.57,1.17-.29-.4.43-1.82.48-2.66a46.21,46.21,0,0,1,6.17-5.37,11.8,11.8,0,0,1,3.78,1Z"/><path class="cls-1" d="M497.64,146.71a5.69,5.69,0,0,1,.56,2.13,9.17,9.17,0,0,1-4.5,2.58,11.74,11.74,0,0,0-5.52-1.9,7.21,7.21,0,0,0-3.19.83c-2.31,1.33-3.37,3.38-3.22,4.92.13,1.28.88,1.78,6.24,2,5.6.31,8.72,1.35,9,4.26.61,6.07-10,14.22-22.71,14.36-5.29.06-7.21-.39-7.75-2.06s.56-4.55,3.32-8.6a8.87,8.87,0,0,1,4.16,0,9,9,0,0,0-1.43,5.19c.22,1.4,1.59,1.93,4.48,1.87,7-.15,12-4.28,11.57-8.47-.14-1.45-1.12-1.94-6.59-2.08s-7.52-.95-7.74-3.17c-.41-4.1,8.8-13,15.4-13.18a29.69,29.69,0,0,1,7.91,1.28"/><path class="cls-1" d="M392.65,150.19a9.92,9.92,0,0,1,2.39-1.26,6,6,0,0,1,3,1.09c-3,5.74-6.34,12.7-6.5,17.9,0,1.16.49,1.62,1.6,1.67.74,0,1.66-.07,3.32-1.58a1.21,1.21,0,0,1,.27.93c-.16.56,0,.29-.27.66-.81,1-.06,1.51-1,2.45-3.28,2.56-5.34,3.35-8,3.14a3.07,3.07,0,0,1-2.72-2.41,14.61,14.61,0,0,1,.84-7.69c.17-.36-.13-.74-.54-.32-6.77,7-14.11,11-19.24,11.18a4.35,4.35,0,0,1-4.13-3.79c-.46-6.16,4-14.85,15.06-21.14a18.19,18.19,0,0,1,9.43-2.28,19.24,19.24,0,0,1,6.47,1.45m-22.77,18.1c.22,1.1,1.59,1.36,2.37,1.35,3.56,0,11.56-5.77,17.44-16.1a5.74,5.74,0,0,0-4.72-2c-4.93.1-16.45,9.91-15.09,16.79"/><path class="cls-1" d="M456.32,146.49c4.9-.11,9.21.62,9.73,3.58.69,4.68-6.94,13.71-21.85,11.9a8.76,8.76,0,0,0-.81,6.39,3.51,3.51,0,0,0,3.84,2.58,32.44,32.44,0,0,0,14.91-4c.58.48-.64,1.1-.6,1.44s.82.32,0,1c-4.48,3.14-13.33,6.65-18.78,6.77-4.23.09-6.62-1.51-6.93-4.62-.74-7.39,6.37-18,15.16-23.81a15.21,15.21,0,0,1,5.32-1.18m-10.94,13.3c8.59-.38,14.12-4.88,13.78-8.25-.16-1.64-3-2.07-5.82-1.88-2.06,1.6-6,7-8,10.13"/><path class="cls-1" d="M200.85,172.31h0c-1.94,1.31-4.56,2.55-5.71,2.58-.8,0-1.44-.65-1.56-1.83-.53-5.33,4.26-14.93,7.34-20.85a6.2,6.2,0,0,0-3.1-1.12,18.15,18.15,0,0,0-3.29,1.67,18.22,18.22,0,0,0-5.31-1.49A21.47,21.47,0,0,0,179,153.79c-12.37,6.66-17.36,17.4-16.74,23.66.22,2.2,3.26,2.79,4.65,2.8,5.28,0,13.36-4.73,19.77-11.6.42-.43,1,0,.79.33a15.66,15.66,0,0,0-.85,8.09c.47,1.62,1.35,2.52,2.61,2.6,4.57.26,9.85-3,12.75-5h0a2.15,2.15,0,0,0,1.05-1.82c.29-.88,2.61-2.72,2.23-3.6,0,0-3.36,2.37-4.44,3.07M173,174.15a1.82,1.82,0,0,1-2.21-1.41c-.66-6.48,8.94-18.43,16.8-18.81,1.2-.06,3.76,1.41,4.55,2.41C186.07,167,177.34,172.4,173,174.15"/></g></g></svg>